<svg width="1060" height="782" viewBox="0 0 1060 782" fill="none" xmlns="http://www.w3.org/2000/svg">
<path d="M701.739 132.4C701.169 120.3 695.469 111.63 684.309 106.68C679.137 104.38 673.733 102.643 668.189 101.5C657.189 99.25 646.309 99.33 635.739 103.5C619.739 109.75 610.889 124.1 610.889 143.65C610.889 259.443 610.889 375.23 610.889 491.01C610.804 492.509 610.804 494.011 610.889 495.51C611.219 498.46 609.889 499.17 607.139 499.09C600.979 498.93 594.799 498.77 588.649 499.14C584.459 499.38 583.399 498.04 583.419 493.9C583.559 454.58 583.359 415.27 583.559 375.95C583.559 369.33 580.799 365.3 575.289 362.47C566.025 357.798 555.805 355.334 545.429 355.27C521.429 354.83 497.429 354.83 473.429 355.04C468.429 355.04 467.249 353.59 467.509 348.9C467.889 341.75 467.439 334.57 467.609 327.41C467.849 316.64 463.259 308.41 454.609 302.41C439.269 291.79 422.259 289.63 404.539 294.07C384.289 299.14 376.699 309.45 376.699 330.07C376.699 437.703 376.699 545.327 376.699 652.94C376.699 665.19 381.039 671.94 392.369 676.33C406.939 681.91 422.029 683.86 437.499 680.94C457.779 677.12 467.649 665.09 467.649 644.48C467.649 620.82 467.649 597.153 467.649 573.48C467.649 533.66 467.626 493.843 467.579 454.03C467.579 450.44 468.269 448.9 472.209 449.18C477.202 449.561 482.216 449.561 487.209 449.18C491.729 448.81 492.719 450.44 492.699 454.77C492.553 487.75 492.573 520.733 492.759 553.72C492.829 564.59 494.409 575.29 499.619 585.13C502.619 590.78 506.959 593.67 513.619 593.65C568.619 593.51 623.619 593.38 678.539 593.65C686.899 593.65 691.719 590.2 694.779 583.15C699.316 572.922 701.698 561.869 701.779 550.68C701.833 481.707 701.833 412.737 701.779 343.77C701.779 275.963 701.779 208.157 701.779 140.35C701.819 137.73 701.869 135.07 701.739 132.4Z" fill="black"/>
<path d="M991.701 344.09V287.09C991.701 236.77 991.701 186.437 991.701 136.09C991.701 119.4 985.431 110.54 969.771 104.86C967.771 104.12 965.681 103.44 963.601 102.86C953.031 99.86 942.321 98.86 931.541 101.52C912.031 106.33 900.771 121.62 900.771 143.33C900.771 259.29 900.771 375.253 900.771 491.22C900.771 498.96 900.771 498.96 892.771 498.96H754.301C742.371 498.96 738.121 501.8 734.851 513.26C730.801 527.381 729.315 542.114 730.461 556.76C731.141 565.47 732.741 573.93 736.801 581.76C740.861 589.59 746.741 593.76 755.911 593.69C825.551 593.51 895.191 593.483 964.831 593.61C973.221 593.61 978.941 590.31 982.701 583.31C988.031 573.41 991.701 563 991.701 551.5C991.674 482.373 991.674 413.237 991.701 344.09Z" fill="black"/>
<path d="M334.802 109.85C316.802 98.4699 297.552 97.2499 277.802 103.98C265.352 108.22 256.442 117.34 256.592 134.69C257.072 188.83 256.772 242.98 256.762 297.13C256.762 352.27 256.822 407.42 256.692 462.56C256.692 471.67 259.972 478.79 268.302 482.35C287.422 490.5 307.162 492.93 327.152 485.77C341.242 480.77 347.702 470.89 347.702 456.04C347.702 348.58 347.702 241.12 347.702 133.66C347.732 123.13 343.402 115.3 334.802 109.85Z" fill="black"/>
<path d="M214.789 301.8C196.789 290.43 177.539 289.2 157.789 295.94C145.439 300.16 136.45 309.2 136.6 326.66C137.09 380.8 136.779 434.95 136.779 489.1C136.779 544.24 136.756 599.383 136.71 654.53C136.71 663.65 140 670.77 148.33 674.31C167.45 682.45 187.189 684.9 207.179 677.72C221.269 672.67 227.719 662.84 227.719 647.98C227.719 540.527 227.719 433.07 227.719 325.61C227.739 315.08 223.399 307.25 214.789 301.8Z" fill="black"/>
<path d="M792.341 470.32C811.461 478.46 831.191 480.9 851.191 473.76C865.291 468.76 871.711 458.96 871.701 444.06C871.701 344.607 871.721 245.153 871.761 145.7C871.761 134.9 867.271 127.07 858.481 121.61C840.611 110.49 821.431 109.16 801.921 116.01C786.321 121.49 780.771 130.53 780.771 147.16V296.59C780.771 347.923 780.771 399.233 780.771 450.52C780.691 459.57 784.001 466.75 792.341 470.32Z" fill="black"/>
<path d="M376.72 264.86C376.72 272.69 377.01 273.08 384.84 274.18C402.73 276.7 420.71 276.57 438.69 275.82C445.351 275.684 451.969 274.737 458.4 273C461.83 272 463.58 270.25 463.54 266.27C463.34 247.63 463.48 228.97 463.43 210.27C463.43 202.77 463.33 202.61 456.04 201.02C440.13 197.55 423.97 197.69 407.81 198.02C399.485 198.094 391.187 198.999 383.04 200.72C378.47 201.72 376.36 203.72 376.6 208.87C377.04 218.34 376.73 227.87 376.72 237.34V264.86Z" fill="#C86823"/>
<path d="M554.69 648.44C554.69 640.61 554.48 632.77 554.77 624.95C554.91 621.26 553.55 619.18 550.17 618.41C536.021 615.063 521.303 614.916 507.09 617.98C503.37 618.79 502.09 620.98 502.14 624.77C502.33 637.93 502.23 651.1 502.21 664.26C502.21 678.11 502.15 678.38 515.87 679.56C526.98 680.56 538.15 680.86 549.18 678.23C553.18 677.23 555 675.33 554.79 670.92C554.44 663.44 554.7 655.93 554.69 648.44Z" fill="#C86823"/>
<path d="M617.85 624.48C617.85 620.93 616.45 619.12 613.36 618.42C599.212 615.079 584.497 614.922 570.28 617.96C566.53 618.77 565.28 620.96 565.4 624.76C565.65 632.58 565.48 640.41 565.48 648.24C565.48 653.73 565.48 659.24 565.48 664.72C565.48 678.12 565.43 678.4 579.03 679.56C590.14 680.56 601.31 680.86 612.33 678.24C616.33 677.24 617.98 675.34 617.9 670.94C617.6 655.46 617.66 640 617.85 624.48Z" fill="#C86823"/>
</svg>
